<?xml version="1.0" encoding="UTF-8"?>
<!--Generator: Apple Native CoreSVG 232.5-->
<!DOCTYPE svg
        PUBLIC "-//W3C//DTD SVG 1.1//EN"
        "http://www.w3.org/Graphics/SVG/1.1/DTD/svg11.dtd">
<svg version="1.1" xmlns="http://www.w3.org/2000/svg" xmlns:xlink="http://www.w3.org/1999/xlink" width="14.7181" height="20.3629">
    <g>
        <rect height="20.3629" opacity="0" width="14.7181" x="0" y="0"/>
        <path d="M14.3119 8.27301L14.3119 15.8811C14.3119 17.5948 13.3922 18.5067 11.665 18.5067L2.6469 18.5067C0.919685 18.5067 0 17.5948 0 15.8811L0 8.27301C0 6.5593 0.919685 5.64742 2.6469 5.64742L4.84941 5.64742L4.84941 7.38719L2.79171 7.38719C2.10735 7.38719 1.73977 7.73702 1.73977 8.45512L1.73977 15.699C1.73977 16.4171 2.10735 16.7669 2.79171 16.7669L11.5148 16.7669C12.1939 16.7669 12.5721 16.4171 12.5721 15.699L12.5721 8.45512C12.5721 7.73702 12.1939 7.38719 11.5148 7.38719L9.46248 7.38719L9.46248 5.64742L11.665 5.64742C13.3922 5.64742 14.3119 6.5593 14.3119 8.27301Z" fill="#027BFF" fill-opacity="1"/>
        <path d="M7.15328 13.5002C7.36951 13.5002 7.56691 13.431 7.77285 13.2275L10.3837 10.7101C10.5257 10.5681 10.6059 10.4182 10.6059 10.2144C10.6059 9.81459 10.2764 9.53586 9.90148 9.53586C9.69803 9.53586 9.50948 9.61823 9.37278 9.76808L8.33931 10.8644L7.86307 11.4514L7.95715 10.2944L7.95715 2.29606C7.95715 1.87105 7.59604 1.50533 7.15328 1.50533C6.71051 1.50533 6.35473 1.87105 6.35473 2.29606L6.35473 10.2944L6.45129 11.4514L5.96725 10.8644L4.9391 9.76808C4.8024 9.61823 4.6032 9.53586 4.40507 9.53586C4.02478 9.53586 3.70594 9.81459 3.70594 10.2144C3.70594 10.4182 3.78334 10.5681 3.92289 10.7101L6.5337 13.2275C6.74745 13.431 6.94237 13.5002 7.15328 13.5002Z" fill="#027BFF" fill-opacity="1"/>
    </g>
</svg>
