<?xml version="1.0" encoding="UTF-8"?>
<!--Generator: Apple Native CoreSVG 232.5-->
<!DOCTYPE svg>
<svg version="1.1" xmlns="http://www.w3.org/2000/svg" width="12.5391" height="18.6953">
    <g>
        <rect height="18.6953" opacity="0" width="12.5391" x="0" y="0"/>
        <path d="M0 11.7578C0 12.4219 0.445312 12.8594 1.14844 12.8594L5.375 12.8594L5.375 16.5078C5.375 17.7031 5.875 18.6953 6.07031 18.6953C6.25781 18.6953 6.75781 17.7031 6.75781 16.5078L6.75781 12.8594L10.9844 12.8594C11.6875 12.8594 12.1328 12.4219 12.1328 11.7578C12.1328 10.1094 10.8125 8.36719 8.61719 7.57031L8.35938 3.98438C9.5 3.33594 10.4375 2.60156 10.8438 2.07812C11.0469 1.8125 11.1484 1.54688 11.1484 1.3125C11.1484 0.835938 10.7812 0.484375 10.2344 0.484375L1.90625 0.484375C1.35156 0.484375 0.992188 0.835938 0.992188 1.3125C0.992188 1.54688 1.08594 1.8125 1.28906 2.07812C1.69531 2.60156 2.63281 3.33594 3.77344 3.98438L3.51562 7.57031C1.32031 8.36719 0 10.1094 0 11.7578Z" fill="#027BFF" fill-opacity="1"/>
    </g>
</svg>
