<?xml version="1.0" encoding="UTF-8"?>
<!--Generator: Apple Native CoreSVG 232.5-->
<!DOCTYPE svg
PUBLIC "-//W3C//DTD SVG 1.1//EN"
       "http://www.w3.org/Graphics/SVG/1.1/DTD/svg11.dtd">
<svg version="1.1" xmlns="http://www.w3.org/2000/svg" xmlns:xlink="http://www.w3.org/1999/xlink" width="16.704" height="19.5303">
 <g>
  <rect height="19.5303" opacity="0" width="16.704" x="0" y="0"/>
  <path d="M0 9.76122C0 14.2274 3.68675 17.9088 8.14762 17.9088C12.6163 17.9088 16.2977 14.2274 16.2977 9.76122C16.2977 7.30516 15.0839 4.88864 13.2624 3.48981C12.7895 3.09252 12.2356 3.14616 11.9309 3.53852C11.6039 3.96353 11.7378 4.47978 12.1327 4.85115C13.5855 6.01629 14.4997 7.76109 14.5075 9.76122C14.5128 13.2872 11.6736 16.1186 8.14762 16.1186C4.6216 16.1186 1.79554 13.2872 1.79554 9.76122C1.79554 6.81827 3.76618 4.36468 6.47087 3.64312L6.47087 4.75037C6.47087 5.37711 6.95803 5.55784 7.47964 5.18111L10.2029 3.22988C10.6215 2.93303 10.6219 2.45618 10.2029 2.15116L7.48496 0.199932C6.963-0.179645 6.47087-0.00884861 6.47087 0.628181L6.47087 1.79434C2.79227 2.57271 0 5.86779 0 9.76122Z" fill="#027BFF" fill-opacity="1"/>
 </g>
</svg>
